<?xml version="1.0"?>
<svg xmlns="http://www.w3.org/2000/svg" viewBox="0 0 50 50">
    <path d="M 25 1 C 11.8 1 1 11.8 1 25 C 1 38.2 11.8 49 25 49 C 38.2 49 49 38.2 49 25 C 49 11.8 38.2 1 25 1 z M 25 3 C 37.1 3 47 12.9 47 25 C 47 37.1 37.1 47 25 47 C 12.9 47 3 37.1 3 25 C 3 12.9 12.9 3 25 3 z M 25 5 C 21.2 5 17.6 6.1 14.5 8 L 35.5 8 C 32.4 6.1 28.8 5 25 5 z M 11.8125 10 C 9.9125 11.7 8.29375 13.7 7.09375 16 L 42.8125 16 C 41.6125 13.7 40.09375 11.7 38.09375 10 L 11.8125 10 z M 6.3125 18 C 5.6125 19.9 5.19375 21.9 5.09375 24 L 45 24 C 44.9 21.9 44.5125 19.9 43.8125 18 L 6.3125 18 z M 5.09375 26 C 5.19375 28.1 5.60625 30.1 6.40625 32 L 43.6875 32 C 44.3875 30.1 44.8 28.1 45 26 L 5.09375 26 z M 7.1875 34 C 8.2875 36.3 9.9125 38.3 11.8125 40 L 38.09375 40 C 39.99375 38.3 41.5875 36.3 42.6875 34 L 7.1875 34 z M 14.5 42 C 17.5 43.9 21.1 45 25 45 C 28.9 45 32.4 43.9 35.5 42 L 14.5 42 z"/>
</svg>
