<?xml version="1.0"?>
<svg xmlns="http://www.w3.org/2000/svg" viewBox="0 0 50 50">
    <path d="M 25 1 C 11.8 1 1 11.8 1 25 C 1 38.2 11.8 49 25 49 C 38.2 49 49 38.2 49 25 C 49 11.8 38.2 1 25 1 z M 25 3 C 37.1 3 47 12.9 47 25 C 47 37.1 37.1 47 25 47 C 12.9 47 3 37.1 3 25 C 3 12.9 12.9 3 25 3 z M 24 5.3125 C 21 6.7125 18 14.4 18 25 C 18 35.6 21 43.2875 24 44.6875 L 24 5.3125 z M 26 5.3125 L 26 44.8125 C 29 43.4125 32 35.69375 32 25.09375 C 32 14.49375 29 6.7125 26 5.3125 z M 20.40625 6 C 14.40625 8.6 10 16.1 10 25 C 10 33.9 14.40625 41.4 20.40625 44 C 17.70625 40.3 16 33.3 16 25 C 16 16.7 17.70625 9.7 20.40625 6 z M 29.59375 6 C 32.29375 9.7 34 16.7 34 25 C 34 33.3 32.29375 40.3 29.59375 44 C 35.59375 41.4 40 33.9 40 25 C 40 16.1 35.59375 8.6 29.59375 6 z M 13.90625 8.40625 C 8.50625 12.00625 5 18.1 5 25 C 5 31.9 8.50625 37.99375 13.90625 41.59375 C 10.30625 37.59375 8 31.6 8 25 C 8 18.4 10.30625 12.40625 13.90625 8.40625 z M 36.09375 8.40625 C 39.69375 12.40625 42 18.4 42 25 C 42 31.6 39.69375 37.59375 36.09375 41.59375 C 41.49375 37.99375 45 31.9 45 25 C 45 18.1 41.49375 12.00625 36.09375 8.40625 z"/>
</svg>
