<?xml version="1.0" encoding="UTF-8" standalone="no"?>
<!-- Creator: CorelDRAW -->
<svg
   xmlns:dc="http://purl.org/dc/elements/1.1/"
   xmlns:cc="http://web.resource.org/cc/"
   xmlns:rdf="http://www.w3.org/1999/02/22-rdf-syntax-ns#"
   xmlns:svg="http://www.w3.org/2000/svg"
   xmlns="http://www.w3.org/2000/svg"
   xmlns:xlink="http://www.w3.org/1999/xlink"
   xmlns:sodipodi="http://sodipodi.sourceforge.net/DTD/sodipodi-0.dtd"
   xmlns:inkscape="http://www.inkscape.org/namespaces/inkscape"
   xml:space="preserve"
   width="744.0979"
   height="910.86444"
   style="shape-rendering:geometricPrecision; text-rendering:geometricPrecision; image-rendering:optimizeQuality; fill-rule:evenodd; clip-rule:evenodd"
   viewBox="0 0 210 297"
   id="svg2"
   sodipodi:version="0.32"
   inkscape:version="0.45.1"
   sodipodi:docname="POL Stanisławów COA.svg"
   inkscape:output_extension="org.inkscape.output.svg.inkscape"
   sodipodi:docbase="C:\Users\Mistrz\Desktop\Nowy folder (4)"
   version="1.0"><metadata
   id="metadata48"><rdf:RDF><cc:Work
       rdf:about=""><dc:format>image/svg+xml</dc:format><dc:type
         rdf:resource="http://purl.org/dc/dcmitype/StillImage" /></cc:Work></rdf:RDF></metadata><sodipodi:namedview
   inkscape:window-height="480"
   inkscape:window-width="640"
   inkscape:pageshadow="2"
   inkscape:pageopacity="0.0"
   guidetolerance="10.0"
   gridtolerance="10.0"
   objecttolerance="10.0"
   borderopacity="1.0"
   bordercolor="#666666"
   pagecolor="#ffffff"
   id="base" />
 <defs
   id="defs4">
  <style
   type="text/css"
   id="style6">
   
    .str0 {stroke:#0A0B0C;stroke-width:0.8819}
    .fil2 {fill:#00923F}
    .fil4 {fill:#0093DD}
    .fil0 {fill:#0A0B0C}
    .fil7 {fill:#957F66}
    .fil1 {fill:#DA251D}
    .fil5 {fill:white}
    .fil8 {fill:url(#id0)}
    .fil3 {fill:url(#id1)}
    .fil6 {fill:url(#id2)}
   
  </style>
  <linearGradient
   id="id0"
   gradientUnits="userSpaceOnUse"
   x1="30.0821"
   y1="90.079399"
   x2="70.889999"
   y2="90.079399">
   <stop
   offset="0"
   style="stop-color:#666666"
   id="stop9" />
   <stop
   offset="0.2"
   style="stop-color:white"
   id="stop11" />
   <stop
   offset="0.8"
   style="stop-color:white"
   id="stop13" />
   <stop
   offset="1"
   style="stop-color:#666666"
   id="stop15" />
  </linearGradient>
  <linearGradient
   id="id1"
   gradientUnits="userSpaceOnUse"
   xlink:href="#id0"
   x1="136.05299"
   y1="171.985"
   x2="183.35899"
   y2="171.985">
  </linearGradient>
  <linearGradient
   id="id2"
   gradientUnits="userSpaceOnUse"
   xlink:href="#id0"
   x1="26.8326"
   y1="171.985"
   x2="74.138603"
   y2="171.985">
  </linearGradient>
 
  <metadata
   id="CorelCorpID_0Corel-Layer" />
  
  
  
  
  
  
  
  
  
  
  
  
  
 <linearGradient
   inkscape:collect="always"
   xlink:href="#id0"
   id="linearGradient2208"
   gradientUnits="userSpaceOnUse"
   x1="141.8425"
   y1="92.744507"
   x2="182.65041"
   y2="92.477997" /><linearGradient
   inkscape:collect="always"
   xlink:href="#id0"
   id="linearGradient2211"
   gradientUnits="userSpaceOnUse"
   x1="85.962502"
   y1="90.079453"
   x2="126.7704"
   y2="90.079453" /><linearGradient
   inkscape:collect="always"
   xlink:href="#id0"
   id="linearGradient2214"
   gradientUnits="userSpaceOnUse"
   x1="30.0821"
   y1="90.079399"
   x2="70.889999"
   y2="90.079399" /><linearGradient
   inkscape:collect="always"
   xlink:href="#id0"
   id="linearGradient2219"
   gradientUnits="userSpaceOnUse"
   x1="26.8326"
   y1="171.985"
   x2="74.138603"
   y2="171.985" /><linearGradient
   inkscape:collect="always"
   xlink:href="#id0"
   id="linearGradient2224"
   gradientUnits="userSpaceOnUse"
   x1="136.05299"
   y1="171.985"
   x2="183.35899"
   y2="171.985" /><linearGradient
   inkscape:collect="always"
   xlink:href="#id0"
   id="linearGradient4184"
   gradientUnits="userSpaceOnUse"
   x1="136.05299"
   y1="171.985"
   x2="183.35899"
   y2="171.985" /><linearGradient
   inkscape:collect="always"
   xlink:href="#id0"
   id="linearGradient4186"
   gradientUnits="userSpaceOnUse"
   x1="26.8326"
   y1="171.985"
   x2="74.138603"
   y2="171.985" /><linearGradient
   inkscape:collect="always"
   xlink:href="#id0"
   id="linearGradient4188"
   gradientUnits="userSpaceOnUse"
   x1="30.0821"
   y1="90.079399"
   x2="70.889999"
   y2="90.079399" /><linearGradient
   inkscape:collect="always"
   xlink:href="#id0"
   id="linearGradient4190"
   gradientUnits="userSpaceOnUse"
   x1="85.962502"
   y1="90.079453"
   x2="126.7704"
   y2="90.079453" /><linearGradient
   inkscape:collect="always"
   xlink:href="#id0"
   id="linearGradient4192"
   gradientUnits="userSpaceOnUse"
   x1="141.8425"
   y1="92.744507"
   x2="182.65041"
   y2="92.477997" /></defs>
 <g
   id="g4169"
   transform="matrix(1.1551925,0,0,1.1551925,-16.311727,-23.026675)"><path
     class="fil0"
     d="M 0,19.967 L 209.972,19.967 L 209.972,226.318 C 210.496,240.0234 203.9595,253.6399 186.2669,255.1711 L 136.2655,255.1711 C 123.0084,255.1714 109.0921,265.937 104.9162,277.0332 C 101.3762,267.5992 89.1357,255.6805 75.6724,255.1711 L 25.8771,255.1711 C 8.7961,253.1989 0.1612,240.888 0.0003,226.2724 L 0.0003,19.9674 L 0,19.967 z "
     id="path21"
     style="fill:#0a0b0c" /><path
     class="fil1"
     d="M 2.4372,22.4913 L 207.5382,22.4913 L 207.5382,224.5403 C 207.7224,227.8654 207.5262,231.1484 206.9054,234.2352 C 199.1329,230.7933 191.2753,228.0094 184.0164,227.4753 L 26.1084,227.4753 C 20.6837,227.7158 12.7466,230.1046 3.5795,234.0362 C 2.7983,231.0453 2.4193,227.8307 2.4377,224.4957 L 2.4377,22.4917 L 2.4372,22.4913 z "
     id="path23"
     style="fill:#da251d" /><polygon
     class="fil0"
     points="25.65,227.88 25.6544,210.179 27.7644,207.621 27.7644,135.941 25.6544,133.406 25.6514,115.476 31.6789,115.476 31.6789,71.6912 28.8477,71.6912 28.8477,56.244 38.8087,56.244 38.8087,64.2852 44.3833,64.2852 44.3833,56.244 56.5887,56.244 56.5887,64.2852 62.1633,64.2852 62.1633,56.244 72.1244,56.244 72.1244,71.6912 69.2931,71.6912 69.2931,115.476 75.3116,115.476 75.3137,122.594 79.4364,122.594 79.4364,115.476 87.5589,115.476 87.5589,71.6912 84.7277,71.6912 84.7277,56.244 94.6887,56.244 94.6887,64.2852 100.263,64.2852 100.263,56.244 112.469,56.244 112.469,64.2852 118.043,64.2852 118.043,56.244 128.004,56.244 128.004,71.6912 125.173,71.6912 125.173,115.476 130.756,115.476 130.756,122.594 134.873,122.594 134.871,115.476 143.439,115.476 143.439,71.6912 140.608,71.6912 140.608,56.244 150.569,56.244 150.569,64.2852 156.143,64.2852 156.143,56.244 168.349,56.244 168.349,64.2852 173.923,64.2852 173.923,56.244 183.884,56.244 183.884,71.6912 181.053,71.6912 181.053,115.476 184.532,115.476 184.537,133.406 182.427,135.941 182.427,207.621 184.537,210.179 184.541,227.88 25.65,227.88 "
     id="polygon25"
     style="fill:#0a0b0c" /><path
     class="fil2"
     d="M 206.494,236.013 C 203.9964,245.531 197.1303,252.7714 184.383,252.7921 L 135.5416,252.7921 C 123.6074,252.9425 110.8612,261.5046 104.9803,271.3868 C 99.8285,262.6635 87.8263,252.9981 76.3542,252.7921 L 27.7141,252.7921 C 15.0575,252.6051 7.245,245.5667 4.0726,235.7249 C 12.8458,232.0027 21.9192,229.0823 28.5448,229.2578 L 182.2008,229.2578 C 189.0418,229.3306 197.8379,232.3152 206.4937,236.013 L 206.494,236.013 z "
     id="path27"
     style="fill:#00923f" /><path
     class="fil3"
     d="M 136.057,211.271 L 146.449,211.271 L 146.449,218.8161 L 136.055,218.8161 L 136.057,211.271 z M 136.057,210.1413 L 183.3546,210.1413 L 181.345,207.6828 L 138.0666,207.6828 L 136.057,210.1413 z M 138.0666,136.9873 L 140.099,136.9873 L 140.099,145.9653 L 138.0666,145.9653 L 138.0666,136.9873 z M 136.057,133.4211 L 183.3546,133.4211 L 181.345,135.8796 L 138.0666,135.8796 L 136.057,133.4211 z M 136.057,132.3296 L 183.3546,132.3296 L 183.3496,116.4951 L 176.2314,116.4951 L 176.2314,123.6939 L 170.577,123.6939 L 170.577,116.4951 L 162.5314,116.4951 L 162.5314,123.6939 L 156.877,123.6939 L 156.877,116.4951 L 148.8314,116.4951 L 148.8314,123.6939 L 143.177,123.6939 L 143.177,116.4951 L 136.0541,116.4951 L 136.057,132.3296 z M 141.2134,136.9873 L 152.799,136.9873 L 152.799,144.6243 L 150.8806,144.6243 L 150.8806,145.9653 L 141.2134,145.9653 L 141.2134,136.9873 z M 153.9134,136.9873 L 165.499,136.9873 L 165.499,144.6243 L 163.5806,144.6243 L 163.5806,145.9653 L 155.9536,145.9653 L 155.9536,144.6243 L 153.9134,144.6243 L 153.9134,136.9873 z M 166.6134,136.9873 L 178.199,136.9873 L 178.199,145.9653 L 168.6536,145.9653 L 168.6536,144.6243 L 166.6134,144.6243 L 166.6134,136.9873 z M 179.3134,136.9873 L 181.345,136.9873 L 181.345,145.9653 L 179.3134,145.9653 L 179.3134,136.9873 z M 181.345,147.0797 L 181.345,156.1253 L 172.9634,156.1253 L 172.9634,147.0797 L 181.345,147.0797 z M 171.849,156.1253 L 168.6536,156.1253 L 168.6536,147.0797 L 171.849,147.0797 L 171.849,156.1253 z M 163.5806,156.1253 L 160.2634,156.1253 L 160.2634,147.0797 L 163.5806,147.0797 L 163.5806,156.1253 z M 159.149,156.1253 L 155.9536,156.1253 L 155.9536,147.0797 L 159.149,147.0797 L 159.149,156.1253 z M 150.8806,156.1253 L 147.5634,156.1253 L 147.5634,147.0797 L 150.8806,147.0797 L 150.8806,156.1253 z M 146.449,156.1253 L 138.0666,156.1253 L 138.0666,147.0797 L 146.449,147.0797 L 146.449,156.1253 z M 181.345,157.2397 L 181.345,166.2853 L 179.3134,166.2853 L 179.3134,157.2397 L 181.345,157.2397 z M 178.199,166.2853 L 166.6134,166.2853 L 166.6134,158.6727 L 168.6536,158.6727 L 168.6536,157.2397 L 178.199,157.2397 L 178.199,166.2853 z M 165.499,166.2853 L 153.9134,166.2853 L 153.9134,158.6727 L 155.9536,158.6727 L 155.9536,157.2397 L 163.5806,157.2397 L 163.5806,158.6727 L 165.499,158.6727 L 165.499,166.2853 L 165.499,166.2853 z M 152.799,166.2853 L 141.2134,166.2853 L 141.2134,157.2397 L 150.8806,157.2397 L 150.8806,158.6727 L 152.799,158.6727 L 152.799,166.2853 L 152.799,166.2853 z M 140.099,166.2853 L 138.0666,166.2853 L 138.0666,157.2397 L 140.099,157.2397 L 140.099,166.2853 z M 181.345,167.3997 L 181.345,176.4453 L 172.9634,176.4453 L 172.9634,167.3997 L 181.345,167.3997 z M 171.849,176.4453 L 160.2634,176.4453 L 160.2634,167.3997 L 171.849,167.3997 L 171.849,176.4453 z M 159.149,176.4453 L 147.5634,176.4453 L 147.5634,167.3997 L 159.149,167.3997 L 159.149,176.4453 z M 146.449,176.4453 L 138.0666,176.4453 L 138.0666,167.3997 L 146.449,167.3997 L 146.449,176.4453 z M 181.345,177.5597 L 181.345,186.6053 L 179.3134,186.6053 L 179.3134,177.5597 L 181.345,177.5597 z M 178.199,186.6053 L 166.6134,186.6053 L 166.6134,177.5597 L 178.199,177.5597 L 178.199,186.6053 z M 165.499,186.6053 L 153.9134,186.6053 L 153.9134,177.5597 L 165.499,177.5597 L 165.499,186.6053 z M 152.799,186.6053 L 141.2134,186.6053 L 141.2134,177.5597 L 152.799,177.5597 L 152.799,186.6053 z M 140.099,186.6053 L 138.0666,186.6053 L 138.0666,177.5597 L 140.099,177.5597 L 140.099,186.6053 z M 181.345,187.7197 L 181.345,196.7653 L 172.9634,196.7653 L 172.9634,187.7197 L 181.345,187.7197 z M 171.849,196.7653 L 160.2634,196.7653 L 160.2634,187.7197 L 171.849,187.7197 L 171.849,196.7653 z M 159.149,196.7653 L 147.5634,196.7653 L 147.5634,187.7197 L 159.149,187.7197 L 159.149,196.7653 z M 146.449,196.7653 L 138.0666,196.7653 L 138.0666,187.7197 L 146.449,187.7197 L 146.449,196.7653 z M 181.345,197.8797 L 181.345,206.6259 L 179.3134,206.6259 L 179.3134,197.8797 L 181.345,197.8797 z M 178.199,206.6259 L 166.6134,206.6259 L 166.6134,197.8797 L 178.199,197.8797 L 178.199,206.6259 z M 165.499,206.6259 L 153.9134,206.6259 L 153.9134,197.8797 L 165.499,197.8797 L 165.499,206.6259 z M 152.799,206.6259 L 141.2134,206.6259 L 141.2134,197.8797 L 152.799,197.8797 L 152.799,206.6259 z M 140.099,206.6259 L 138.0666,206.6259 L 138.0666,197.8797 L 140.099,197.8797 L 140.099,206.6259 z M 147.5634,211.271 L 159.149,211.271 L 159.149,218.8161 L 147.5634,218.8161 L 147.5634,211.271 z M 160.2634,211.271 L 171.849,211.271 L 171.849,218.8161 L 160.2634,218.8161 L 160.2634,211.271 z M 172.9634,211.271 L 183.3546,211.271 L 183.3566,218.8161 L 172.9634,218.8161 L 172.9634,211.271 z M 183.3568,219.9305 L 183.3588,227.4756 L 179.3134,227.4756 L 179.3134,219.9305 L 183.3568,219.9305 z M 178.199,227.4756 L 166.6134,227.4756 L 166.6134,219.9305 L 178.199,219.9305 L 178.199,227.4756 z M 165.499,227.4756 L 153.9134,227.4756 L 153.9134,219.9305 L 165.499,219.9305 L 165.499,227.4756 z M 152.799,227.4756 L 141.2134,227.4756 L 141.2134,219.9305 L 152.799,219.9305 L 152.799,227.4756 z M 140.099,227.4756 L 136.0528,227.4756 L 136.0548,219.9305 L 140.099,219.9305 L 140.099,227.4756 z "
     id="path29"
     style="fill:url(#linearGradient4184)" /><path
     class="fil4"
     d="M 105.096,170.505 C 113.8044,170.505 120.907,177.6076 120.907,186.316 L 120.9243,227.4753 L 89.2338,227.4753 L 89.285,186.316 C 89.285,177.6076 96.3876,170.505 105.096,170.505 z "
     id="path31"
     style="fill:#0093dd" /><path
     class="fil5 str0"
     d="M 106.598,208.268 L 116.0208,208.268 C 116.6222,208.2096 116.9799,207.8588 117.1358,207.2659 L 117.1358,212.7119 C 116.9465,212.0335 116.5368,211.7757 116.0208,211.721 L 106.598,211.721 L 106.5925,223.7181 C 106.6509,224.3195 107.0016,224.6772 107.5945,224.8331 L 102.1486,224.8331 C 102.827,224.6438 103.0848,224.2341 103.1395,223.7181 L 103.145,200.7577 L 95.4382,200.7577 C 94.9221,200.8124 94.5125,201.0702 94.3232,201.7486 L 94.3232,196.3027 C 94.4791,196.8956 94.8368,197.2463 95.4382,197.3047 L 103.145,197.3047 L 103.145,189.6726 L 97.1604,189.6726 C 96.6444,189.7273 96.2347,189.9851 96.0454,190.6635 L 96.0454,185.2176 C 96.2013,185.8105 96.5591,186.1612 97.1604,186.2196 L 103.1394,186.2196 L 103.1394,179.6235 C 103.0847,179.1075 102.8269,178.6978 102.1485,178.5085 L 107.5945,178.5085 C 107.0015,178.6644 106.6508,179.0221 106.5924,179.6235 L 106.598,186.2196 L 112.5808,186.2196 C 113.1822,186.1612 113.5399,185.8105 113.6958,185.2176 L 113.6958,190.6635 C 113.5065,189.9851 113.0968,189.7273 112.5808,189.6726 L 106.598,189.6726 L 106.598,197.3047 L 114.311,197.3047 C 114.9124,197.2463 115.2701,196.8956 115.426,196.3027 L 115.426,201.7486 C 115.2367,201.0702 114.827,200.8124 114.311,200.7577 L 106.598,200.7577 L 106.598,208.268 L 106.598,208.268 z "
     id="path33"
     style="fill:#ffffff;stroke:#0a0b0c;stroke-width:0.88190001" /><path
     class="fil6"
     d="M 26.8368,211.271 L 37.2288,211.271 L 37.2288,218.8161 L 26.8348,218.8161 L 26.8368,211.271 z M 26.8368,210.1413 L 74.1344,210.1413 L 72.1248,207.6828 L 28.8464,207.6828 L 26.8368,210.1413 L 26.8368,210.1413 z M 28.8464,136.9873 L 30.8788,136.9873 L 30.8788,145.9653 L 28.8464,145.9653 L 28.8464,136.9873 z M 26.8368,133.4211 L 74.1344,133.4211 L 72.1248,135.8796 L 28.8464,135.8796 L 26.8368,133.4211 L 26.8368,133.4211 z M 26.8368,132.3296 L 74.1344,132.3296 L 74.1294,116.4951 L 67.0112,116.4951 L 67.0112,123.6939 L 61.3568,123.6939 L 61.3568,116.4951 L 53.3112,116.4951 L 53.3112,123.6939 L 47.6568,123.6939 L 47.6568,116.4951 L 39.6112,116.4951 L 39.6112,123.6939 L 33.9568,123.6939 L 33.9568,116.4951 L 26.8339,116.4951 L 26.8368,132.3296 L 26.8368,132.3296 z M 31.9932,136.9873 L 43.5788,136.9873 L 43.5788,144.6243 L 41.6604,144.6243 L 41.6604,145.9653 L 31.9932,145.9653 L 31.9932,136.9873 z M 44.6932,136.9873 L 56.2788,136.9873 L 56.2788,144.6243 L 54.3604,144.6243 L 54.3604,145.9653 L 46.7334,145.9653 L 46.7334,144.6243 L 44.6932,144.6243 L 44.6932,136.9873 z M 57.3932,136.9873 L 68.9788,136.9873 L 68.9788,145.9653 L 59.4334,145.9653 L 59.4334,144.6243 L 57.3932,144.6243 L 57.3932,136.9873 z M 70.0932,136.9873 L 72.1248,136.9873 L 72.1248,145.9653 L 70.0932,145.9653 L 70.0932,136.9873 z M 72.1248,147.0797 L 72.1248,156.1253 L 63.7432,156.1253 L 63.7432,147.0797 L 72.1248,147.0797 z M 62.6288,156.1253 L 59.4334,156.1253 L 59.4334,147.0797 L 62.6288,147.0797 L 62.6288,156.1253 z M 54.3604,156.1253 L 51.0432,156.1253 L 51.0432,147.0797 L 54.3604,147.0797 L 54.3604,156.1253 z M 49.9288,156.1253 L 46.7334,156.1253 L 46.7334,147.0797 L 49.9288,147.0797 L 49.9288,156.1253 z M 41.6604,156.1253 L 38.3432,156.1253 L 38.3432,147.0797 L 41.6604,147.0797 L 41.6604,156.1253 z M 37.2288,156.1253 L 28.8464,156.1253 L 28.8464,147.0797 L 37.2288,147.0797 L 37.2288,156.1253 z M 72.1248,157.2397 L 72.1248,166.2853 L 70.0932,166.2853 L 70.0932,157.2397 L 72.1248,157.2397 z M 68.9788,166.2853 L 57.3932,166.2853 L 57.3932,158.6727 L 59.4334,158.6727 L 59.4334,157.2397 L 68.9788,157.2397 L 68.9788,166.2853 z M 56.2788,166.2853 L 44.6932,166.2853 L 44.6932,158.6727 L 46.7334,158.6727 L 46.7334,157.2397 L 54.3604,157.2397 L 54.3604,158.6727 L 56.2788,158.6727 L 56.2788,166.2853 L 56.2788,166.2853 z M 43.5788,166.2853 L 31.9932,166.2853 L 31.9932,157.2397 L 41.6604,157.2397 L 41.6604,158.6727 L 43.5788,158.6727 L 43.5788,166.2853 L 43.5788,166.2853 z M 30.8788,166.2853 L 28.8464,166.2853 L 28.8464,157.2397 L 30.8788,157.2397 L 30.8788,166.2853 z M 72.1248,167.3997 L 72.1248,176.4453 L 63.7432,176.4453 L 63.7432,167.3997 L 72.1248,167.3997 z M 62.6288,176.4453 L 51.0432,176.4453 L 51.0432,167.3997 L 62.6288,167.3997 L 62.6288,176.4453 z M 49.9288,176.4453 L 38.3432,176.4453 L 38.3432,167.3997 L 49.9288,167.3997 L 49.9288,176.4453 z M 37.2288,176.4453 L 28.8464,176.4453 L 28.8464,167.3997 L 37.2288,167.3997 L 37.2288,176.4453 z M 72.1248,177.5597 L 72.1248,186.6053 L 70.0932,186.6053 L 70.0932,177.5597 L 72.1248,177.5597 z M 68.9788,186.6053 L 57.3932,186.6053 L 57.3932,177.5597 L 68.9788,177.5597 L 68.9788,186.6053 z M 56.2788,186.6053 L 44.6932,186.6053 L 44.6932,177.5597 L 56.2788,177.5597 L 56.2788,186.6053 z M 43.5788,186.6053 L 31.9932,186.6053 L 31.9932,177.5597 L 43.5788,177.5597 L 43.5788,186.6053 z M 30.8788,186.6053 L 28.8464,186.6053 L 28.8464,177.5597 L 30.8788,177.5597 L 30.8788,186.6053 z M 72.1248,187.7197 L 72.1248,196.7653 L 63.7432,196.7653 L 63.7432,187.7197 L 72.1248,187.7197 z M 62.6288,196.7653 L 51.0432,196.7653 L 51.0432,187.7197 L 62.6288,187.7197 L 62.6288,196.7653 z M 49.9288,196.7653 L 38.3432,196.7653 L 38.3432,187.7197 L 49.9288,187.7197 L 49.9288,196.7653 z M 37.2288,196.7653 L 28.8464,196.7653 L 28.8464,187.7197 L 37.2288,187.7197 L 37.2288,196.7653 z M 72.1248,197.8797 L 72.1248,206.6259 L 70.0932,206.6259 L 70.0932,197.8797 L 72.1248,197.8797 z M 68.9788,206.6259 L 57.3932,206.6259 L 57.3932,197.8797 L 68.9788,197.8797 L 68.9788,206.6259 z M 56.2788,206.6259 L 44.6932,206.6259 L 44.6932,197.8797 L 56.2788,197.8797 L 56.2788,206.6259 z M 43.5788,206.6259 L 31.9932,206.6259 L 31.9932,197.8797 L 43.5788,197.8797 L 43.5788,206.6259 z M 30.8788,206.6259 L 28.8464,206.6259 L 28.8464,197.8797 L 30.8788,197.8797 L 30.8788,206.6259 z M 38.3432,211.271 L 49.9288,211.271 L 49.9288,218.8161 L 38.3432,218.8161 L 38.3432,211.271 z M 51.0432,211.271 L 62.6288,211.271 L 62.6288,218.8161 L 51.0432,218.8161 L 51.0432,211.271 z M 63.7432,211.271 L 74.1344,211.271 L 74.1364,218.8161 L 63.7432,218.8161 L 63.7432,211.271 L 63.7432,211.271 z M 74.1366,219.9305 L 74.1386,227.4756 L 70.0932,227.4756 L 70.0932,219.9305 L 74.1366,219.9305 z M 68.9788,227.4756 L 57.3932,227.4756 L 57.3932,219.9305 L 68.9788,219.9305 L 68.9788,227.4756 z M 56.2788,227.4756 L 44.6932,227.4756 L 44.6932,219.9305 L 56.2788,219.9305 L 56.2788,227.4756 z M 43.5788,227.4756 L 31.9932,227.4756 L 31.9932,219.9305 L 43.5788,219.9305 L 43.5788,227.4756 z M 30.8788,227.4756 L 26.8326,227.4756 L 26.8346,219.9305 L 30.8788,219.9305 L 30.8788,227.4756 z "
     id="path35"
     style="fill:url(#linearGradient4186)" /><path
     class="fil5"
     d="M 136.984,136.987 L 136.984,145.965 L 135.4351,145.965 L 135.4351,136.987 L 136.984,136.987 z M 75.3038,133.4208 L 134.8867,133.4208 L 136.9329,135.8793 L 73.2575,135.8793 L 75.3038,133.4208 L 75.3038,133.4208 z M 75.3162,132.3293 L 134.8738,132.3293 L 134.8732,128.4998 L 134.8724,123.6936 L 129.6684,123.6936 L 129.6684,116.4948 L 121.6228,116.4948 L 121.6228,123.6936 L 115.9684,123.6936 L 115.9684,116.4948 L 107.9228,116.4948 L 107.9228,123.6936 L 102.2684,123.6936 L 102.2684,116.4948 L 94.2228,116.4948 L 94.2228,123.6936 L 88.5684,123.6936 L 88.5684,116.4948 L 80.5228,116.4948 L 80.5228,123.6936 L 75.3136,123.6936 L 75.3152,129.0174 L 75.3162,132.3293 L 75.3162,132.3293 z M 118.1414,166.832 C 120.1388,168.1753 121.9205,169.817 123.4209,171.6926 L 118.2882,175.9995 C 117.2871,174.7227 116.1048,173.5936 114.7813,172.6519 L 118.1414,166.832 L 118.1414,166.832 z M 109.523,164.9821 C 112.0011,165.4972 114.327,166.4356 116.4216,167.7177 L 113.9083,172.0709 C 112.3126,171.0791 110.5396,170.3478 108.6493,169.9369 L 109.523,164.9821 z M 101.5422,169.9366 C 99.6518,170.3475 97.8785,171.0791 96.2829,172.071 L 93.7696,167.7178 C 95.8643,166.4357 98.1904,165.4973 100.6685,164.9821 L 101.5422,169.9366 z M 122.7711,173.6039 C 123.355,174.4129 123.8845,175.2631 124.355,176.1495 C 122.9654,177.9633 121.9372,180.0671 121.3796,182.3521 C 120.8915,180.3534 120.0436,178.4935 118.9087,176.8448 L 122.7711,173.6039 z M 85.8353,176.1513 C 86.3061,175.2643 86.8358,174.4135 87.4201,173.6039 L 91.2825,176.8448 C 90.1467,178.4948 89.2982,180.3564 88.8104,182.3568 C 88.2532,180.0708 87.2251,177.9659 85.8353,176.1513 z M 105.0956,162.8526 C 106.3503,162.8526 107.5824,162.9518 108.7845,163.1431 L 107.6202,169.7465 C 106.7965,169.6211 105.9535,169.5564 105.0956,169.5564 C 104.2378,169.5564 103.3949,169.6212 102.5714,169.7469 L 101.4072,163.1441 C 102.6094,162.9529 103.841,162.8526 105.0956,162.8526 L 105.0956,162.8526 z M 95.4104,172.6527 C 94.0867,173.5944 92.9049,174.7232 91.9037,176 L 86.77,171.6922 C 88.2705,169.8166 90.0516,168.1746 92.0494,166.8314 L 95.4104,172.6527 L 95.4104,172.6527 z M 89.5268,167.3994 L 81.7659,167.3994 L 81.7659,172.3468 C 82.9966,173.1645 84.1144,174.1397 85.0892,175.2439 C 85.5409,174.4321 86.0407,173.6503 86.5843,172.9026 L 85.3241,171.8452 C 86.536,170.195 87.9492,168.7007 89.5268,167.3994 z M 80.7194,171.7044 L 80.7194,167.3994 L 73.2064,167.3994 L 73.2064,176.445 L 76.5026,176.445 L 76.5036,170.0349 C 77.9963,170.4007 79.412,170.9671 80.7194,171.7044 z M 73.2064,177.5594 L 73.2064,186.605 L 76.5011,186.605 L 76.5025,177.5594 L 73.2064,177.5594 L 73.2064,177.5594 z M 133.6878,186.605 L 136.984,186.605 L 136.984,177.5594 L 133.6864,177.5594 L 133.6878,186.605 z M 73.2064,187.7194 L 73.2064,196.765 L 76.4996,196.765 L 76.5009,187.7194 L 73.2064,187.7194 z M 133.6893,196.765 L 136.984,196.765 L 136.984,187.7194 L 133.688,187.7194 L 133.6893,196.765 z M 73.2064,197.8794 L 73.2064,206.925 L 76.498,206.925 L 76.4994,197.8794 L 73.2064,197.8794 z M 133.6909,206.925 L 136.984,206.925 L 136.984,197.8794 L 133.6895,197.8794 L 133.6909,206.925 z M 75.3185,218.8158 L 76.4962,218.8158 L 76.4979,208.0394 L 73.5514,208.0394 L 75.3164,210.1792 L 75.3185,218.8158 z M 133.6927,218.8158 L 134.8719,218.8158 L 134.874,210.1792 L 136.639,208.0394 L 133.691,208.0394 L 133.6927,218.8158 z M 75.3207,227.4753 L 76.4949,227.4753 L 76.4961,219.9302 L 75.3188,219.9302 L 75.3207,227.4753 z M 133.694,227.4753 L 134.8697,227.4753 L 134.8716,219.9302 L 133.6928,219.9302 L 133.694,227.4753 L 133.694,227.4753 z M 136.984,176.445 L 136.984,167.3994 L 129.4718,167.3994 L 129.4718,171.7035 C 130.7787,170.9668 132.1932,170.4005 133.6853,170.0349 L 133.6863,176.445 L 136.984,176.445 z M 128.4253,172.3456 L 128.4253,167.3994 L 120.6659,167.3994 C 122.2432,168.7005 123.6558,170.1946 124.8677,171.8446 L 123.6074,172.9022 C 124.1509,173.6497 124.6502,174.4311 125.1017,175.2425 C 126.0768,174.1383 127.1944,173.1632 128.4253,172.3456 L 128.4253,172.3456 z M 136.984,147.0794 L 136.984,156.125 L 129.4718,156.125 L 129.4718,147.0794 L 136.984,147.0794 z M 136.984,157.2394 L 136.984,166.285 L 135.435,166.285 L 135.435,157.2394 L 136.984,157.2394 z M 73.2064,166.285 L 73.2064,157.2394 L 74.7561,157.2394 L 74.7561,166.285 L 73.2064,166.285 z M 75.8026,166.285 L 75.8026,157.2394 L 86.6826,157.2394 L 86.6826,166.285 L 75.8026,166.285 z M 87.7291,166.285 L 87.7291,157.2394 L 96.2091,157.2394 L 96.2091,158.6724 L 98.609,158.6724 L 98.609,164.3798 C 97.0165,164.8528 95.4955,165.4947 94.0671,166.285 L 92.9425,166.285 L 92.4042,165.3527 C 91.9197,165.6475 91.4464,165.9584 90.9846,166.285 L 87.7291,166.285 z M 99.6556,164.0962 L 99.6556,158.6724 L 101.2821,158.6724 L 101.2821,157.2394 L 108.9091,157.2394 L 108.9091,158.6724 L 110.5355,158.6724 L 110.5355,164.0961 C 110.2628,164.0291 109.9884,163.9668 109.712,163.9097 L 109.9975,162.2906 C 108.4128,161.9668 106.7736,161.7966 105.0956,161.7966 C 103.4176,161.7966 101.7785,161.9667 100.1939,162.2904 L 100.4794,163.9096 C 100.2031,163.9667 99.9283,164.0292 99.6556,164.0962 z M 111.582,164.3795 L 111.582,158.6724 L 113.9821,158.6724 L 113.9821,157.2394 L 122.462,157.2394 L 122.462,166.285 L 119.2081,166.285 C 118.7459,165.9583 118.2721,165.6472 117.7873,165.3523 L 117.2488,166.285 L 116.1246,166.285 C 114.696,165.4945 113.1748,164.8523 111.582,164.3795 L 111.582,164.3795 z M 123.5085,166.285 L 123.5085,157.2394 L 134.3884,157.2394 L 134.3884,166.285 L 123.5085,166.285 L 123.5085,166.285 z M 73.2064,156.125 L 73.2064,147.0794 L 80.7194,147.0794 L 80.7194,156.125 L 73.2064,156.125 z M 81.7659,156.125 L 81.7659,147.0794 L 92.6459,147.0794 L 92.6459,156.125 L 81.7659,156.125 z M 93.6924,156.125 L 93.6924,147.0794 L 96.2091,147.0794 L 96.2091,156.125 L 93.6924,156.125 z M 101.2821,147.0794 L 104.5723,147.0794 L 104.5723,156.125 L 101.2821,156.125 L 101.2821,147.0794 z M 105.6189,156.125 L 105.6189,147.0794 L 108.9091,147.0794 L 108.9091,156.125 L 105.6189,156.125 z M 113.9821,147.0794 L 116.4988,147.0794 L 116.4988,156.125 L 113.9821,156.125 L 113.9821,147.0794 z M 117.5453,156.125 L 117.5453,147.0794 L 128.4253,147.0794 L 128.4253,156.125 L 117.5453,156.125 z M 73.2064,145.965 L 73.2064,136.987 L 74.7561,136.987 L 74.7561,145.965 L 73.2064,145.965 z M 75.8027,145.965 L 75.8027,136.987 L 86.6826,136.987 L 86.6826,145.965 L 75.8027,145.965 L 75.8027,145.965 z M 87.729,145.965 L 87.729,136.987 L 98.6089,136.987 L 98.6089,144.624 L 96.2091,144.624 L 96.2091,145.965 L 87.729,145.965 L 87.729,145.965 z M 99.6556,144.624 L 99.6556,136.987 L 110.5355,136.987 L 110.5355,144.624 L 108.9091,144.624 L 108.9091,145.965 L 101.2821,145.965 L 101.2821,144.624 L 99.6556,144.624 z M 111.582,144.624 L 111.582,136.987 L 122.462,136.987 L 122.462,145.965 L 113.9821,145.965 L 113.9821,144.624 L 111.582,144.624 z M 123.5085,145.965 L 123.5085,136.987 L 134.3884,136.987 L 134.3884,145.965 L 123.5085,145.965 z "
     id="path37"
     style="fill:#ffffff" /><path
     class="fil7"
     d="M 77.6367,227.475 L 77.5868,171.3377 C 83.4648,173.3337 87.8074,178.704 88.2904,185.122 L 79.332,185.122 L 79.332,186.2364 L 88.3352,186.2364 C 88.3353,186.2629 88.336,186.2892 88.336,186.3157 L 88.3268,210.522 L 79.332,210.522 L 79.332,211.6364 L 88.3263,211.6364 L 88.3203,227.475 L 77.6367,227.475 L 77.6367,227.475 z M 132.553,227.475 L 132.6029,171.3377 C 126.7249,173.3337 122.3823,178.704 121.8993,185.122 L 130.8789,185.122 L 130.8789,186.2364 L 121.8545,186.2364 C 121.8544,186.2629 121.8537,186.2892 121.8537,186.3157 L 121.8629,210.522 L 130.8789,210.522 L 130.8789,211.6364 L 121.8634,211.6364 L 121.8694,227.475 L 132.553,227.475 L 132.553,227.475 z "
     id="path39"
     style="fill:#7a1d00;fill-opacity:1" /><path
     class="fil8"
     d="M 68.2286,71.685 L 68.2286,78.1906 L 66.2832,78.1906 L 66.2832,71.685 L 68.2286,71.685 z M 70.89,70.5706 L 70.89,57.5652 L 63.451,57.5652 L 63.451,65.5004 L 55.301,65.5004 L 55.301,57.5652 L 45.671,57.5652 L 45.671,65.5004 L 37.521,65.5004 L 37.521,57.5652 L 30.0821,57.5652 L 30.0821,70.5706 L 70.89,70.5706 z M 65.1688,78.1906 L 56.1232,78.1906 L 56.1232,71.685 L 65.1688,71.685 L 65.1688,78.1906 z M 55.0088,78.1906 L 45.9632,78.1906 L 45.9632,71.685 L 55.0088,71.685 L 55.0088,78.1906 z M 44.8488,78.1906 L 35.8032,78.1906 L 35.8032,71.685 L 44.8488,71.685 L 44.8488,78.1906 z M 34.6888,78.1906 L 32.7435,78.1906 L 32.7435,71.685 L 34.6888,71.685 L 34.6888,78.1906 z M 68.2286,79.305 L 68.2286,85.8106 L 61.2032,85.8106 L 61.2032,79.305 L 68.2286,79.305 z M 60.0888,85.8106 L 51.9012,85.8106 L 51.9012,83.4944 L 51.0432,83.4944 L 51.0432,79.305 L 60.0888,79.305 L 60.0888,85.8106 L 60.0888,85.8106 z M 49.0709,85.8106 L 40.8832,85.8106 L 40.8832,79.305 L 49.9288,79.305 L 49.9288,83.4944 L 49.0709,83.4944 L 49.0709,85.8106 z M 39.7688,85.8106 L 32.7435,85.8106 L 32.7435,79.305 L 39.7688,79.305 L 39.7688,85.8106 z M 68.2286,86.925 L 68.2286,93.4306 L 66.2832,93.4306 L 66.2832,86.925 L 68.2286,86.925 z M 65.1688,93.4306 L 56.1232,93.4306 L 56.1232,86.925 L 65.1688,86.925 L 65.1688,93.4306 z M 55.0088,93.4306 L 51.9012,93.4306 L 51.9012,86.925 L 55.0088,86.925 L 55.0088,93.4306 z M 49.0709,93.4306 L 45.9632,93.4306 L 45.9632,86.925 L 49.0709,86.925 L 49.0709,93.4306 z M 44.8488,93.4306 L 35.8032,93.4306 L 35.8032,86.925 L 44.8488,86.925 L 44.8488,93.4306 z M 34.6888,93.4306 L 32.7435,93.4306 L 32.7435,86.925 L 34.6888,86.925 L 34.6888,93.4306 z M 68.2286,94.545 L 68.2286,101.0506 L 61.2032,101.0506 L 61.2032,94.545 L 68.2286,94.545 z M 60.0888,101.0506 L 51.0432,101.0506 L 51.0432,100.6514 C 52.3307,100.3916 53.3053,99.2499 53.3053,97.8878 C 53.3053,96.8501 52.7398,95.9401 51.9012,95.4507 L 51.9012,94.545 L 60.0888,94.545 L 60.0888,101.0506 L 60.0888,101.0506 z M 49.9288,101.0506 L 40.8832,101.0506 L 40.8832,94.545 L 49.0709,94.545 L 49.0709,95.4509 C 48.2325,95.9405 47.6668,96.8503 47.6668,97.8878 C 47.6668,99.2498 48.6414,100.3914 49.9288,100.6513 L 49.9288,101.0506 L 49.9288,101.0506 z M 39.7688,101.0506 L 32.7435,101.0506 L 32.7435,94.545 L 39.7688,94.545 L 39.7688,101.0506 z M 68.2286,102.165 L 68.2286,108.6706 L 66.2832,108.6706 L 66.2832,102.165 L 68.2286,102.165 z M 65.1688,108.6706 L 56.1232,108.6706 L 56.1232,102.165 L 65.1688,102.165 L 65.1688,108.6706 z M 55.0088,108.6706 L 45.9632,108.6706 L 45.9632,102.165 L 55.0088,102.165 L 55.0088,108.6706 z M 44.8488,108.6706 L 35.8032,108.6706 L 35.8032,102.165 L 44.8488,102.165 L 44.8488,108.6706 z M 34.6888,108.6706 L 32.7435,108.6706 L 32.7435,102.165 L 34.6888,102.165 L 34.6888,108.6706 z M 68.2286,109.785 L 68.2286,115.4757 L 65.9244,115.4757 L 65.9244,116.2906 L 62.4436,116.2906 L 62.4436,115.4757 L 61.2032,115.4757 L 61.2032,109.785 L 68.2286,109.785 z M 52.2245,116.2906 L 51.0432,116.2906 L 51.0432,109.785 L 60.0888,109.785 L 60.0888,115.4757 L 52.2245,115.4757 L 52.2245,116.2906 L 52.2245,116.2906 z M 49.9288,116.2906 L 48.7435,116.2906 L 48.7435,115.4757 L 40.8832,115.4757 L 40.8832,109.785 L 49.9288,109.785 L 49.9288,116.2906 z M 38.5244,116.2906 L 35.0436,116.2906 L 35.0436,115.4757 L 32.7435,115.4757 L 32.7435,109.785 L 39.7688,109.785 L 39.7688,115.4757 L 38.5244,115.4757 L 38.5244,116.2906 L 38.5244,116.2906 z M 35.0436,117.405 L 38.5244,117.405 L 38.5244,122.5937 L 35.0436,122.5937 L 35.0436,117.405 z M 48.7435,117.405 L 52.2245,117.405 L 52.2245,122.5936 L 48.7435,122.5936 L 48.7435,117.405 z M 62.4436,117.405 L 65.9244,117.405 L 65.9244,122.5937 L 62.4436,122.5937 L 62.4436,117.405 z "
     id="path41"
     style="fill:url(#linearGradient4188)" /><path
     class="fil8"
     d="M 124.109,71.685 L 124.109,78.1906 L 122.1636,78.1906 L 122.1636,71.685 L 124.109,71.685 z M 126.7704,70.5706 L 126.7704,57.5652 L 119.3314,57.5652 L 119.3314,65.5004 L 111.1814,65.5004 L 111.1814,57.5652 L 101.5514,57.5652 L 101.5514,65.5004 L 93.4014,65.5004 L 93.4014,57.5652 L 85.9625,57.5652 L 85.9625,70.5706 L 126.7704,70.5706 z M 121.0492,78.1906 L 112.0036,78.1906 L 112.0036,71.685 L 121.0492,71.685 L 121.0492,78.1906 L 121.0492,78.1906 z M 110.8892,78.1906 L 101.8436,78.1906 L 101.8436,71.685 L 110.8892,71.685 L 110.8892,78.1906 L 110.8892,78.1906 z M 100.7292,78.1906 L 91.6836,78.1906 L 91.6836,71.685 L 100.7292,71.685 L 100.7292,78.1906 L 100.7292,78.1906 z M 90.5692,78.1906 L 88.6239,78.1906 L 88.6239,71.685 L 90.5692,71.685 L 90.5692,78.1906 z M 124.109,79.305 L 124.109,85.8106 L 117.0836,85.8106 L 117.0836,79.305 L 124.109,79.305 z M 115.9692,85.8106 L 107.7816,85.8106 L 107.7816,83.4944 L 106.9236,83.4944 L 106.9236,79.305 L 115.9692,79.305 L 115.9692,85.8106 L 115.9692,85.8106 z M 104.9513,85.8106 L 96.7636,85.8106 L 96.7636,79.305 L 105.8092,79.305 L 105.8092,83.4944 L 104.9513,83.4944 L 104.9513,85.8106 L 104.9513,85.8106 z M 95.6492,85.8106 L 88.6239,85.8106 L 88.6239,79.305 L 95.6492,79.305 L 95.6492,85.8106 z M 124.109,86.925 L 124.109,93.4306 L 122.1636,93.4306 L 122.1636,86.925 L 124.109,86.925 z M 121.0492,93.4306 L 112.0036,93.4306 L 112.0036,86.925 L 121.0492,86.925 L 121.0492,93.4306 L 121.0492,93.4306 z M 110.8892,93.4306 L 107.7816,93.4306 L 107.7816,86.925 L 110.8892,86.925 L 110.8892,93.4306 z M 104.9513,93.4306 L 101.8436,93.4306 L 101.8436,86.925 L 104.9513,86.925 L 104.9513,93.4306 z M 100.7292,93.4306 L 91.6836,93.4306 L 91.6836,86.925 L 100.7292,86.925 L 100.7292,93.4306 L 100.7292,93.4306 z M 90.5692,93.4306 L 88.6239,93.4306 L 88.6239,86.925 L 90.5692,86.925 L 90.5692,93.4306 z M 124.109,94.545 L 124.109,101.0506 L 117.0836,101.0506 L 117.0836,94.545 L 124.109,94.545 z M 115.9692,101.0506 L 106.9236,101.0506 L 106.9236,100.6514 C 108.2111,100.3916 109.1857,99.2499 109.1857,97.8878 C 109.1857,96.8501 108.6202,95.9401 107.7816,95.4507 L 107.7816,94.545 L 115.9692,94.545 L 115.9692,101.0506 L 115.9692,101.0506 z M 105.8092,101.0506 L 96.7636,101.0506 L 96.7636,94.545 L 104.9513,94.545 L 104.9513,95.4509 C 104.1129,95.9405 103.5472,96.8503 103.5472,97.8878 C 103.5472,99.2498 104.5218,100.3914 105.8092,100.6513 L 105.8092,101.0506 L 105.8092,101.0506 z M 95.6492,101.0506 L 88.6239,101.0506 L 88.6239,94.545 L 95.6492,94.545 L 95.6492,101.0506 z M 124.109,102.165 L 124.109,108.6706 L 122.1636,108.6706 L 122.1636,102.165 L 124.109,102.165 z M 121.0492,108.6706 L 112.0036,108.6706 L 112.0036,102.165 L 121.0492,102.165 L 121.0492,108.6706 L 121.0492,108.6706 z M 110.8892,108.6706 L 101.8436,108.6706 L 101.8436,102.165 L 110.8892,102.165 L 110.8892,108.6706 L 110.8892,108.6706 z M 100.7292,108.6706 L 91.6836,108.6706 L 91.6836,102.165 L 100.7292,102.165 L 100.7292,108.6706 L 100.7292,108.6706 z M 90.5692,108.6706 L 88.6239,108.6706 L 88.6239,102.165 L 90.5692,102.165 L 90.5692,108.6706 z M 124.109,109.785 L 124.109,115.4757 L 120.5368,115.4757 L 120.5368,116.2906 L 117.0836,116.2906 L 117.0836,109.785 L 124.109,109.785 L 124.109,109.785 z M 106.9236,115.4757 L 106.9236,109.785 L 115.9692,109.785 L 115.9692,115.4757 L 106.9236,115.4757 L 106.9236,115.4757 z M 105.8092,116.2906 L 103.356,116.2906 L 103.356,115.4757 L 96.7636,115.4757 L 96.7636,109.785 L 105.8092,109.785 L 105.8092,116.2906 L 105.8092,116.2906 z M 93.1368,116.2906 L 89.656,116.2906 L 89.656,115.4757 L 88.6239,115.4757 L 88.6239,109.785 L 95.6492,109.785 L 95.6492,115.4757 L 93.1368,115.4757 L 93.1368,116.2906 z M 89.656,117.405 L 93.1368,117.405 L 93.1368,122.5937 L 89.656,122.5937 L 89.656,117.405 z M 103.356,117.405 L 106.8368,117.405 L 106.8368,122.5937 L 103.356,122.5937 L 103.356,117.405 z M 117.056,117.405 L 120.5368,117.405 L 120.5368,122.5937 L 117.056,122.5937 L 117.056,117.405 z "
     id="path43"
     style="fill:url(#linearGradient4190)" /><path
     class="fil8"
     d="M 179.989,71.685 L 179.989,78.1906 L 178.0436,78.1906 L 178.0436,71.685 L 179.989,71.685 z M 182.6504,70.5706 L 182.6504,57.5652 L 175.2114,57.5652 L 175.2114,65.5004 L 167.0614,65.5004 L 167.0614,57.5652 L 157.4314,57.5652 L 157.4314,65.5004 L 149.2814,65.5004 L 149.2814,57.5652 L 141.8425,57.5652 L 141.8425,70.5706 L 182.6504,70.5706 z M 176.9292,78.1906 L 167.8836,78.1906 L 167.8836,71.685 L 176.9292,71.685 L 176.9292,78.1906 z M 166.7692,78.1906 L 157.7236,78.1906 L 157.7236,71.685 L 166.7692,71.685 L 166.7692,78.1906 z M 156.6092,78.1906 L 147.5636,78.1906 L 147.5636,71.685 L 156.6092,71.685 L 156.6092,78.1906 z M 146.4492,78.1906 L 144.5039,78.1906 L 144.5039,71.685 L 146.4492,71.685 L 146.4492,78.1906 z M 179.989,79.305 L 179.989,85.8106 L 172.9636,85.8106 L 172.9636,79.305 L 179.989,79.305 z M 171.8492,85.8106 L 163.6616,85.8106 L 163.6616,83.4944 L 162.8036,83.4944 L 162.8036,79.305 L 171.8492,79.305 L 171.8492,85.8106 z M 160.8313,85.8106 L 152.6436,85.8106 L 152.6436,79.305 L 161.6892,79.305 L 161.6892,83.4944 L 160.8313,83.4944 L 160.8313,85.8106 z M 151.5292,85.8106 L 144.5039,85.8106 L 144.5039,79.305 L 151.5292,79.305 L 151.5292,85.8106 z M 179.989,86.925 L 179.989,93.4306 L 178.0436,93.4306 L 178.0436,86.925 L 179.989,86.925 z M 176.9292,93.4306 L 167.8836,93.4306 L 167.8836,86.925 L 176.9292,86.925 L 176.9292,93.4306 z M 166.7692,93.4306 L 163.6616,93.4306 L 163.6616,86.925 L 166.7692,86.925 L 166.7692,93.4306 z M 160.8313,93.4306 L 157.7236,93.4306 L 157.7236,86.925 L 160.8313,86.925 L 160.8313,93.4306 z M 156.6092,93.4306 L 147.5636,93.4306 L 147.5636,86.925 L 156.6092,86.925 L 156.6092,93.4306 z M 146.4492,93.4306 L 144.5039,93.4306 L 144.5039,86.925 L 146.4492,86.925 L 146.4492,93.4306 z M 179.989,94.545 L 179.989,101.0506 L 172.9636,101.0506 L 172.9636,94.545 L 179.989,94.545 z M 171.8492,101.0506 L 162.8036,101.0506 L 162.8036,100.6514 C 164.0911,100.3916 165.0657,99.2499 165.0657,97.8878 C 165.0657,96.8501 164.5002,95.9401 163.6616,95.4507 L 163.6616,94.545 L 171.8492,94.545 L 171.8492,101.0506 L 171.8492,101.0506 z M 161.6892,101.0506 L 152.6436,101.0506 L 152.6436,94.545 L 160.8313,94.545 L 160.8313,95.4509 C 159.9929,95.9405 159.4272,96.8503 159.4272,97.8878 C 159.4272,99.2498 160.4018,100.3914 161.6892,100.6513 L 161.6892,101.0506 L 161.6892,101.0506 z M 151.5292,101.0506 L 144.5039,101.0506 L 144.5039,94.545 L 151.5292,94.545 L 151.5292,101.0506 z M 179.989,102.165 L 179.989,108.6706 L 178.0436,108.6706 L 178.0436,102.165 L 179.989,102.165 z M 176.9292,108.6706 L 167.8836,108.6706 L 167.8836,102.165 L 176.9292,102.165 L 176.9292,108.6706 z M 166.7692,108.6706 L 157.7236,108.6706 L 157.7236,102.165 L 166.7692,102.165 L 166.7692,108.6706 z M 156.6092,108.6706 L 147.5636,108.6706 L 147.5636,102.165 L 156.6092,102.165 L 156.6092,108.6706 z M 146.4492,108.6706 L 144.5039,108.6706 L 144.5039,102.165 L 146.4492,102.165 L 146.4492,108.6706 z M 179.989,109.785 L 179.989,115.4757 L 175.1448,115.4757 L 175.1448,116.2906 L 172.9636,116.2906 L 172.9636,109.785 L 179.989,109.785 L 179.989,109.785 z M 171.8492,116.2906 L 171.664,116.2906 L 171.664,115.4757 L 162.8036,115.4757 L 162.8036,109.785 L 171.8492,109.785 L 171.8492,116.2906 z M 161.4449,116.2906 L 157.9639,116.2906 L 157.9639,115.4757 L 152.6436,115.4757 L 152.6436,109.785 L 161.6892,109.785 L 161.6892,115.4757 L 161.4449,115.4757 L 161.4449,116.2906 L 161.4449,116.2906 z M 147.7448,116.2906 L 144.5039,116.2906 L 144.5039,109.785 L 151.5292,109.785 L 151.5292,115.4757 L 147.7448,115.4757 L 147.7448,116.2906 L 147.7448,116.2906 z M 144.5039,122.5937 L 144.5039,117.405 L 147.7448,117.405 L 147.7448,122.5937 L 144.5039,122.5937 z M 157.9639,117.405 L 161.4449,117.405 L 161.4449,122.5936 L 157.9639,122.5936 L 157.9639,117.405 z M 171.664,117.405 L 175.1448,117.405 L 175.1448,122.5937 L 171.664,122.5937 L 171.664,117.405 z "
     id="path45"
     style="fill:url(#linearGradient4192)" /></g>
</svg>